<?xml version="1.0" standalone="no"?>
<!DOCTYPE svg PUBLIC "-//W3C//DTD SVG 20010904//EN"
 "http://www.w3.org/TR/2001/REC-SVG-20010904/DTD/svg10.dtd">
<svg version="1.0" xmlns="http://www.w3.org/2000/svg"
 width="1920.000000pt" height="1080.000000pt" viewBox="0 0 1920.000000 1080.000000"
 preserveAspectRatio="xMidYMid meet">

<g transform="translate(0.000000,1080.000000) scale(0.100000,-0.100000)"
fill="#000000" stroke="none">
<path d="M9350 8490 c-145 -26 -333 -141 -476 -292 -83 -88 -133 -161 -185
-273 -61 -130 -80 -216 -88 -400 l-7 -160 -76 78 c-42 43 -79 74 -81 70 -7
-12 10 -133 27 -200 17 -64 62 -169 96 -219 l20 -31 -72 -2 c-114 -3 -215 -30
-340 -91 -76 -37 -88 -60 -33 -60 20 0 81 -8 136 -17 l101 -16 -109 -22 c-109
-22 -212 -61 -306 -117 -83 -48 -149 -100 -140 -109 5 -5 35 -1 68 7 61 16
205 34 205 25 0 -2 -58 -63 -128 -135 -402 -411 -651 -834 -734 -1249 -32
-161 -32 -400 0 -545 88 -390 337 -706 752 -954 109 -65 168 -94 175 -87 2 3
0 32 -6 65 -6 32 -12 149 -13 259 -2 170 1 216 20 305 35 172 85 337 143 467
17 39 31 77 31 83 0 15 -95 -38 -170 -93 -82 -61 -160 -138 -180 -177 -10 -19
-27 -44 -39 -54 -12 -11 -21 -27 -21 -37 0 -10 -4 -20 -9 -23 -46 -29 2 373
59 499 10 23 28 64 38 91 42 104 118 222 248 383 l28 34 -68 -7 c-164 -18
-352 -76 -403 -125 -25 -24 -43 -10 -21 17 8 9 45 73 82 142 206 380 474 700
801 955 93 73 277 198 352 241 29 16 53 36 53 44 0 8 -35 42 -78 76 -75 59
-220 210 -210 219 3 3 35 -8 71 -25 91 -41 96 -40 86 13 -4 23 -17 67 -30 97
-39 99 -78 247 -90 348 -11 85 -10 114 3 194 35 218 165 414 367 556 121 85
183 92 258 27 41 -35 109 -152 133 -230 7 -22 18 -47 24 -55 7 -8 25 -64 40
-125 42 -170 83 -294 119 -366 l34 -67 -27 -16 c-72 -42 -260 -291 -260 -343
0 -31 20 -29 81 8 80 50 241 117 347 145 116 32 354 44 469 25 178 -31 368
-112 533 -229 113 -80 301 -266 385 -380 65 -88 89 -99 112 -52 8 17 42 41 99
70 l86 45 114 0 c76 0 114 4 114 11 0 20 -153 83 -245 101 l-91 18 18 70 c74
301 87 691 27 851 -55 146 -201 216 -423 201 -152 -10 -280 -54 -447 -152 -34
-20 -63 -34 -66 -32 -5 6 15 129 32 197 8 30 11 58 6 63 -9 9 -109 -101 -185
-205 -27 -37 -51 -66 -52 -65 -4 4 43 237 51 260 4 8 2 18 -4 22 -12 7 -100
-124 -146 -214 -34 -69 -95 -236 -95 -262 0 -27 -20 -33 -85 -24 -50 6 -55 9
-55 31 0 41 -40 214 -72 314 -37 114 -112 280 -127 280 -7 0 -11 -31 -11 -84
0 -46 -3 -104 -6 -130 l-7 -46 -42 102 c-155 379 -296 521 -485 488z m2049
-730 c21 -11 34 -41 55 -125 25 -98 26 -464 2 -590 -10 -55 -23 -106 -29 -112
-21 -27 -47 -13 -77 41 -42 73 -113 138 -255 231 -66 43 -131 88 -145 101 -23
21 -111 66 -213 108 l-38 16 38 46 c49 60 166 154 245 198 80 44 181 74 283
85 114 12 115 12 134 1z"/>
<path d="M9961 5970 c-93 -20 -184 -83 -194 -136 -13 -71 65 -176 170 -230
l58 -29 -52 -3 c-33 -2 -63 3 -82 12 -61 32 -67 14 -15 -43 95 -106 278 -93
418 30 61 53 86 104 86 170 0 66 -31 122 -92 165 -79 57 -202 84 -297 64z
m187 -112 c21 -21 14 -57 -14 -70 -28 -13 -49 -5 -68 25 -22 35 51 76 82 45z"/>
<path d="M11155 5841 c-33 -14 -83 -66 -91 -94 -3 -15 -3 -38 0 -52 7 -28 123
-148 138 -143 19 7 48 71 48 105 0 28 -4 33 -24 33 -54 0 -63 67 -11 84 17 6
31 11 33 11 1 1 -3 16 -9 33 -9 25 -16 32 -37 31 -15 0 -36 -4 -47 -8z"/>
<path d="M11060 5245 c-19 -7 -43 -14 -54 -14 -10 -1 -45 -17 -77 -37 -77 -46
-82 -66 -38 -152 53 -105 130 -136 222 -92 l42 21 -25 -24 c-14 -13 -30 -32
-36 -42 -18 -33 -40 -40 -81 -29 l-38 10 4 -45 c9 -109 -42 -206 -130 -251
-51 -26 -164 -57 -241 -65 -85 -9 -233 10 -314 40 -61 23 -64 23 -54 5 20 -37
117 -100 201 -132 76 -28 98 -31 229 -36 133 -4 154 -2 250 22 60 15 125 39
152 56 41 25 52 28 77 19 16 -6 49 -9 72 -7 41 3 46 6 67 48 13 26 22 62 22
89 0 41 4 49 54 95 65 62 78 86 75 136 -3 32 2 45 25 69 39 40 46 103 18 158
-25 48 -105 121 -141 129 -14 3 -35 10 -46 15 -65 29 -178 36 -235 14z m189
-69 c33 -12 32 -12 -52 -23 -88 -12 -135 -30 -174 -66 -22 -20 -23 -20 -43 -2
-26 24 -25 31 6 52 73 47 192 65 263 39z"/>
</g>
</svg>
